<?xml version="1.0" standalone="no"?>
<!DOCTYPE svg PUBLIC "-//W3C//DTD SVG 20010904//EN"
 "http://www.w3.org/TR/2001/REC-SVG-20010904/DTD/svg10.dtd">
<svg version="1.0" xmlns="http://www.w3.org/2000/svg"
 width="644.000000pt" height="642.000000pt" viewBox="0 0 644.000000 642.000000"
 preserveAspectRatio="xMidYMid meet">

<g transform="translate(0.000000,642.000000) scale(0.100000,-0.100000)"
fill="#000000" stroke="none">
<path d="M30 3213 l0 -3188 3195 0 3195 0 0 3188 0 3187 -1277 -2 -1278 -3 0
-1218 c0 -669 -2 -1217 -5 -1217 -3 0 -107 102 -230 228 -377 382 -1249 1261
-1735 1750 l-460 462 -702 0 -703 0 0 -3187z m2995 -213 l1700 -1700 -1703 0
-1702 0 0 1700 c0 935 1 1700 3 1700 1 0 767 -765 1702 -1700z"/>
</g>
</svg>
